<?xml version="1.0" encoding="UTF-8"?>
<svg id="Layer_1" xmlns="http://www.w3.org/2000/svg" viewBox="0 0 360 372.56">
  <defs>
    <style>
      .cls-1 {
        fill: #79bbe8;
      }

      .cls-2 {
        fill: #f99bbd;
      }
    </style>
  </defs>
  <path class="cls-2" d="M142.13,207.09c66.64,62.86-34.52,170.08-105.66,1.59C-31.47,47.76,200.88,21.47,149.54,141.26c-6.36,14.84-33.32,41.39-7.4,65.84ZM46.44,34.8c-7.33,3.79-9.54,14.1-4.92,23.03s14.3,13.11,21.63,9.32,9.54-14.1,4.92-23.03-14.3-13.11-21.63-9.32ZM19.9,57.8c-6.75,3.49-8.59,13.36-4.1,22.05s13.6,12.91,20.35,9.42,8.59-13.36,4.1-22.05-13.6-12.91-20.35-9.42ZM3.89,89.27c-5.23,3.02-4.78,11.61-1.06,18.05s10.97,9.22,16.2,6.2,6.45-10.69,2.73-17.13-12.64-10.14-17.87-7.12ZM85.36,13.01c-9.79,2.03-15.72,13.34-13.25,25.27s12.41,19.95,22.2,17.92,15.72-13.34,13.25-25.27-12.41-19.95-22.2-17.92ZM136.34,0c-12.58,0-22.79,13.07-22.79,29.2s10.2,29.2,22.79,29.2,22.79-13.07,22.79-29.2S148.93,0,136.34,0Z"/>
  <path class="cls-1" d="M210.46,214.79c-51.35-119.78,181.01-93.49,113.07,67.43-71.14,168.49-172.3,61.28-105.66-1.59,25.92-24.45-1.04-51-7.4-65.84ZM291.93,117.66c-4.61,8.93-2.41,19.25,4.92,23.03s17.02-.39,21.63-9.32c4.61-8.93,2.41-19.25-4.92-23.03-7.33-3.79-17.02.39-21.63,9.32ZM319.75,140.76c-4.49,8.69-2.65,18.56,4.1,22.05s15.86-.73,20.35-9.42c4.49-8.69,2.65-18.56-4.1-22.05-6.75-3.49-15.86.73-20.35,9.42ZM338.24,169.92c-3.72,6.44-2.5,14.11,2.73,17.13s12.48.24,16.2-6.2,4.16-15.03-1.06-18.05-14.15.67-17.87,7.12ZM252.45,104.47c-2.47,11.93,3.46,23.24,13.25,25.27,9.79,2.03,19.73-6,22.2-17.92,2.47-11.93-3.46-23.24-13.25-25.27-9.79-2.03-19.73,6-22.2,17.92ZM200.87,102.74c0,16.13,10.2,29.2,22.79,29.2,12.58,0,22.79-13.07,22.79-29.2s-10.2-29.2-22.79-29.2-22.79,13.07-22.79,29.2Z"/>
</svg>